<svg width="20" height="20" viewBox="0 0 20 20" fill="none" xmlns="http://www.w3.org/2000/svg">
<mask id="mask0_8_1994" style="mask-type:alpha" maskUnits="userSpaceOnUse" x="0" y="0" width="20" height="20">
<rect y="0.101562" width="19.7972" height="19.7972" fill="#D9D9D9"/>
</mask>
<g mask="url(#mask0_8_1994)">
<path d="M5.89795 17.5064C5.69173 17.3002 5.58862 17.0562 5.58862 16.7743C5.58862 16.4925 5.69173 16.2485 5.89795 16.0423L11.9402 9.99998L5.87733 3.93708C5.68486 3.7446 5.58862 3.50401 5.58862 3.2153C5.58862 2.92659 5.69173 2.67913 5.89795 2.47291C6.10418 2.26668 6.3482 2.16357 6.63004 2.16357C6.91188 2.16357 7.1559 2.26668 7.36213 2.47291L14.2912 9.42256C14.3736 9.50505 14.4321 9.59441 14.4664 9.69065C14.5008 9.78688 14.518 9.89 14.518 9.99998C14.518 10.11 14.5008 10.2131 14.4664 10.3093C14.4321 10.4055 14.3736 10.4949 14.2912 10.5774L7.3415 17.5271C7.14903 17.7195 6.91188 17.8158 6.63004 17.8158C6.3482 17.8158 6.10418 17.7127 5.89795 17.5064Z" fill="#1C1B1F"/>
</g>
</svg>
