<svg width="20" height="20" viewBox="0 0 20 20" fill="none" xmlns="http://www.w3.org/2000/svg">
<mask id="mask0_8_2015" style="mask-type:alpha" maskUnits="userSpaceOnUse" x="0" y="0" width="20" height="20">
<rect y="0.101562" width="19.7972" height="19.7972" fill="#D9D9D9"/>
</mask>
<g mask="url(#mask0_8_2015)">
<path d="M12.4763 17.5068L5.52665 10.5778C5.44416 10.4953 5.38573 10.4059 5.35136 10.3097C5.31699 10.2134 5.2998 10.1103 5.2998 10.0004C5.2998 9.89037 5.31699 9.78726 5.35136 9.69102C5.38573 9.59479 5.44416 9.50542 5.52665 9.42294L12.4763 2.47328C12.6688 2.28081 12.9094 2.18457 13.1981 2.18457C13.4868 2.18457 13.7343 2.28768 13.9405 2.4939C14.1467 2.70012 14.2498 2.94071 14.2498 3.21568C14.2498 3.49064 14.1467 3.73123 13.9405 3.93745L7.87757 10.0004L13.9405 16.0633C14.1329 16.2557 14.2292 16.4929 14.2292 16.7747C14.2292 17.0566 14.1261 17.3006 13.9199 17.5068C13.7136 17.713 13.473 17.8161 13.1981 17.8161C12.9231 17.8161 12.6825 17.713 12.4763 17.5068Z" fill="#1C1B1F"/>
</g>
</svg>
