<svg width="22" height="22" viewBox="0 0 22 22" fill="none" xmlns="http://www.w3.org/2000/svg">
<mask id="mask0_1858_217" style="mask-type:alpha" maskUnits="userSpaceOnUse" x="0" y="0" width="22" height="22">
<rect width="22" height="22" fill="#D9D9D9"/>
</mask>
<g mask="url(#mask0_1858_217)">
<path d="M13.5486 16.8057C12.919 16.8057 12.3877 16.5884 11.9549 16.1536C11.522 15.7189 11.3056 15.1867 11.3056 14.5571C11.3056 13.9275 11.5229 13.3962 11.9577 12.9634C12.3924 12.5305 12.9246 12.3141 13.5542 12.3141C14.1838 12.3141 14.7151 12.5314 15.1479 12.9662C15.5808 13.4009 15.7972 13.9331 15.7972 14.5627C15.7972 15.1923 15.5799 15.7235 15.1451 16.1564C14.7104 16.5893 14.1782 16.8057 13.5486 16.8057ZM4.27776 20.1668C3.86526 20.1668 3.50751 20.0153 3.20451 19.7123C2.9015 19.4093 2.75 19.0516 2.75 18.6391V4.88904C2.75 4.47654 2.9015 4.11879 3.20451 3.81579C3.50751 3.51277 3.86526 3.36126 4.27776 3.36126H5.57638V1.8335H7.18055V3.36126H14.8195V1.8335H16.4236V3.36126H17.7222C18.1347 3.36126 18.4925 3.51277 18.7955 3.81579C19.0985 4.11879 19.25 4.47654 19.25 4.88904V18.6391C19.25 19.0516 19.0985 19.4093 18.7955 19.7123C18.4925 20.0153 18.1347 20.1668 17.7222 20.1668H4.27776ZM4.27776 18.6391H17.7222V9.01404H4.27776V18.6391ZM4.27776 7.48628H17.7222V4.88904H4.27776V7.48628Z" fill="#BDBDBD"/>
</g>
</svg>
