<svg xmlns="http://www.w3.org/2000/svg" width="20" height="18" viewBox="0 0 20 18" fill="none">
<path d="M2 18C1.45 18 0.979167 17.8042 0.5875 17.4125C0.195833 17.0208 0 16.55 0 16V2C0 1.45 0.195833 0.979167 0.5875 0.5875C0.979167 0.195833 1.45 0 2 0H18C18.55 0 19.0208 0.195833 19.4125 0.5875C19.8042 0.979167 20 1.45 20 2V16C20 16.55 19.8042 17.0208 19.4125 17.4125C19.0208 17.8042 18.55 18 18 18H2ZM7 14C7.28333 14 7.52083 13.9042 7.7125 13.7125C7.90417 13.5208 8 13.2833 8 13C8 12.7167 7.90417 12.4792 7.7125 12.2875C7.52083 12.0958 7.28333 12 7 12H4C3.71667 12 3.47917 12.0958 3.2875 12.2875C3.09583 12.4792 3 12.7167 3 13C3 13.2833 3.09583 13.5208 3.2875 13.7125C3.47917 13.9042 3.71667 14 4 14H7ZM12.55 9.175L11.825 8.45C11.625 8.25 11.3917 8.15417 11.125 8.1625C10.8583 8.17083 10.625 8.275 10.425 8.475C10.2417 8.675 10.1458 8.90833 10.1375 9.175C10.1292 9.44167 10.225 9.675 10.425 9.875L11.85 11.3C12.05 11.5 12.2833 11.6 12.55 11.6C12.8167 11.6 13.05 11.5 13.25 11.3L16.8 7.75C17 7.55 17.1 7.31667 17.1 7.05C17.1 6.78333 17 6.55 16.8 6.35C16.6 6.15 16.3625 6.05 16.0875 6.05C15.8125 6.05 15.575 6.15 15.375 6.35L12.55 9.175ZM7 10C7.28333 10 7.52083 9.90417 7.7125 9.7125C7.90417 9.52083 8 9.28333 8 9C8 8.71667 7.90417 8.47917 7.7125 8.2875C7.52083 8.09583 7.28333 8 7 8H4C3.71667 8 3.47917 8.09583 3.2875 8.2875C3.09583 8.47917 3 8.71667 3 9C3 9.28333 3.09583 9.52083 3.2875 9.7125C3.47917 9.90417 3.71667 10 4 10H7ZM7 6C7.28333 6 7.52083 5.90417 7.7125 5.7125C7.90417 5.52083 8 5.28333 8 5C8 4.71667 7.90417 4.47917 7.7125 4.2875C7.52083 4.09583 7.28333 4 7 4H4C3.71667 4 3.47917 4.09583 3.2875 4.2875C3.09583 4.47917 3 4.71667 3 5C3 5.28333 3.09583 5.52083 3.2875 5.7125C3.47917 5.90417 3.71667 6 4 6H7Z" fill="#344248"/>
</svg>