<svg width="24" height="24" viewBox="0 0 24 24" fill="none" xmlns="http://www.w3.org/2000/svg">
<mask id="mask0_8_1587" style="mask-type:alpha" maskUnits="userSpaceOnUse" x="0" y="0" width="24" height="24">
<rect width="24" height="24" fill="#D9D9D9"/>
</mask>
<g mask="url(#mask0_8_1587)">
<path d="M20.875 22.275L18.45 19.875C18.1166 20.1083 17.7458 20.2833 17.3375 20.4C16.9291 20.5167 16.5083 20.575 16.075 20.575C14.825 20.575 13.7625 20.1375 12.8875 19.2625C12.0125 18.3875 11.575 17.325 11.575 16.075C11.575 14.825 12.0125 13.7625 12.8875 12.8875C13.7625 12.0125 14.825 11.575 16.075 11.575C17.325 11.575 18.3875 12.0125 19.2625 12.8875C20.1375 13.7625 20.575 14.825 20.575 16.075C20.575 16.5083 20.5166 16.9292 20.4 17.3375C20.2833 17.7458 20.1083 18.125 19.875 18.475L22.275 20.875C22.475 21.075 22.5791 21.3083 22.5875 21.575C22.5958 21.8417 22.5 22.075 22.3 22.275C22.1 22.475 21.8625 22.575 21.5875 22.575C21.3125 22.575 21.075 22.475 20.875 22.275ZM16.075 18.575C16.775 18.575 17.3666 18.3333 17.85 17.85C18.3333 17.3667 18.575 16.775 18.575 16.075C18.575 15.375 18.3333 14.7833 17.85 14.3C17.3666 13.8167 16.775 13.575 16.075 13.575C15.375 13.575 14.7833 13.8167 14.3 14.3C13.8166 14.7833 13.575 15.375 13.575 16.075C13.575 16.775 13.8166 17.3667 14.3 17.85C14.7833 18.3333 15.375 18.575 16.075 18.575ZM1.74998 17.55C1.53331 17.4 1.40414 17.1958 1.36248 16.9375C1.32081 16.6792 1.36664 16.4333 1.49998 16.2L5.27498 10.15C5.45831 9.86667 5.71248 9.71251 6.03748 9.68751C6.36248 9.66251 6.64164 9.77501 6.87498 10.025L8.99998 12.5L12.175 7.32501C12.3583 7.00834 12.6375 6.85001 13.0125 6.85001C13.3875 6.85001 13.675 7.00001 13.875 7.30001L15.725 10.075C15.3416 10.0917 14.9791 10.1375 14.6375 10.2125C14.2958 10.2875 13.9583 10.3917 13.625 10.525L13.075 9.70001L9.99998 14.7C9.81664 14.9833 9.55831 15.1417 9.22498 15.175C8.89164 15.2083 8.60831 15.0917 8.37498 14.825L6.24998 12.35L3.19998 17.275C3.04998 17.525 2.82914 17.6792 2.53748 17.7375C2.24581 17.7958 1.98331 17.7333 1.74998 17.55ZM18.3 10.575C17.9833 10.4417 17.6541 10.3333 17.3125 10.25C16.9708 10.1667 16.6166 10.1167 16.25 10.1L20.8 2.90001C20.95 2.66667 21.1666 2.51667 21.45 2.45001C21.7333 2.38334 21.9916 2.44167 22.225 2.62501C22.4416 2.77501 22.575 2.97917 22.625 3.23751C22.675 3.49584 22.6333 3.74167 22.5 3.97501L18.3 10.575Z" fill="#344248"/>
</g>
</svg>
