<svg width="51" height="51" viewBox="0 0 51 51" fill="none" xmlns="http://www.w3.org/2000/svg">
<circle cx="25.5" cy="25.5" r="25.5" fill="#B2B2B2"/>
<mask id="mask0_28_5417" style="mask-type:alpha" maskUnits="userSpaceOnUse" x="14" y="14" width="24" height="24">
<rect x="14" y="14" width="24" height="24" fill="#D9D9D9"/>
</mask>
<g mask="url(#mask0_28_5417)">
<path d="M26 26C24.9 26 23.9583 25.6083 23.175 24.825C22.3917 24.0417 22 23.1 22 22C22 20.9 22.3917 19.9583 23.175 19.175C23.9583 18.3917 24.9 18 26 18C27.1 18 28.0417 18.3917 28.825 19.175C29.6083 19.9583 30 20.9 30 22C30 23.1 29.6083 24.0417 28.825 24.825C28.0417 25.6083 27.1 26 26 26ZM20 34C19.45 34 18.9792 33.8042 18.5875 33.4125C18.1958 33.0208 18 32.55 18 32V31.2C18 30.6333 18.1458 30.1125 18.4375 29.6375C18.7292 29.1625 19.1167 28.8 19.6 28.55C20.6333 28.0333 21.6833 27.6458 22.75 27.3875C23.8167 27.1292 24.9 27 26 27C27.1 27 28.1833 27.1292 29.25 27.3875C30.3167 27.6458 31.3667 28.0333 32.4 28.55C32.8833 28.8 33.2708 29.1625 33.5625 29.6375C33.8542 30.1125 34 30.6333 34 31.2V32C34 32.55 33.8042 33.0208 33.4125 33.4125C33.0208 33.8042 32.55 34 32 34H20Z" fill="white"/>
</g>
</svg>
