<svg width="20" height="20" viewBox="0 0 20 20" fill="none" xmlns="http://www.w3.org/2000/svg">
<mask id="mask0_10_2448" style="mask-type:alpha" maskUnits="userSpaceOnUse" x="0" y="0" width="20" height="20">
<rect width="19.7972" height="19.7972" fill="#D9D9D9"/>
</mask>
<g mask="url(#mask0_10_2448)">
<path d="M9.89872 11.0536L5.85678 15.0955C5.70555 15.2467 5.51308 15.3223 5.27936 15.3223C5.04564 15.3223 4.85317 15.2467 4.70194 15.0955C4.55071 14.9443 4.4751 14.7518 4.4751 14.5181C4.4751 14.2844 4.55071 14.0919 4.70194 13.9407L8.74388 9.89872L4.70194 5.85678C4.55071 5.70555 4.4751 5.51308 4.4751 5.27936C4.4751 5.04564 4.55071 4.85317 4.70194 4.70194C4.85317 4.55071 5.04564 4.4751 5.27936 4.4751C5.51308 4.4751 5.70555 4.55071 5.85678 4.70194L9.89872 8.74388L13.9407 4.70194C14.0919 4.55071 14.2844 4.4751 14.5181 4.4751C14.7518 4.4751 14.9443 4.55071 15.0955 4.70194C15.2467 4.85317 15.3223 5.04564 15.3223 5.27936C15.3223 5.51308 15.2467 5.70555 15.0955 5.85678L11.0536 9.89872L15.0955 13.9407C15.2467 14.0919 15.3223 14.2844 15.3223 14.5181C15.3223 14.7518 15.2467 14.9443 15.0955 15.0955C14.9443 15.2467 14.7518 15.3223 14.5181 15.3223C14.2844 15.3223 14.0919 15.2467 13.9407 15.0955L9.89872 11.0536Z" fill="#1C1B1F"/>
</g>
</svg>
