<svg viewBox="0 0 14 15" fill="none" xmlns="http://www.w3.org/2000/svg">
<path d="M3.62914 4.33265C4.62188 3.68755 5.7722 3.20825 6.99997 3.20825C9.78997 3.20825 12.18 5.68328 13.23 6.95455C13.3958 7.16127 13.4876 7.42984 13.4876 7.70831C13.4876 7.98678 13.3958 8.25535 13.23 8.46207C12.6512 9.16282 11.6652 10.2293 10.4296 11.0455M8.49997 11.978C8.01759 12.1238 7.51561 12.2084 6.99997 12.2084C4.20997 12.2084 1.81997 9.73334 0.769968 8.46207C0.604128 8.25535 0.512329 7.98678 0.512329 7.70831C0.512329 7.42984 0.604128 7.16127 0.769968 6.95455C1.10264 6.55178 1.56982 6.02817 2.14162 5.50072" stroke="#C2C2C2" stroke-linecap="round" stroke-linejoin="round"/>
<path d="M8.41421 9.12252C9.19526 8.34147 9.19526 7.07514 8.41421 6.2941C7.63316 5.51305 6.36684 5.51305 5.58579 6.2941" stroke="#C2C2C2" stroke-linecap="round" stroke-linejoin="round"/>
<path d="M13.5 14.2083L0.5 1.20825" stroke="#C2C2C2" stroke-linecap="round" stroke-linejoin="round"/>
</svg>
