<svg viewBox="0 0 14 15" fill="none" xmlns="http://www.w3.org/2000/svg">
<path d="M13.23 6.95455C13.3958 7.16127 13.4876 7.42984 13.4876 7.70831C13.4876 7.98678 13.3958 8.25535 13.23 8.46207C12.18 9.73334 9.78997 12.2084 6.99997 12.2084C4.20997 12.2084 1.81997 9.73334 0.769968 8.46207C0.604128 8.25535 0.512329 7.98678 0.512329 7.70831C0.512329 7.42984 0.604128 7.16127 0.769968 6.95455C1.81997 5.68328 4.20997 3.20825 6.99997 3.20825C9.78997 3.20825 12.18 5.68328 13.23 6.95455Z" stroke="#C2C2C2" stroke-linecap="round" stroke-linejoin="round"/>
<path d="M7 9.70825C8.10457 9.70825 9 8.81282 9 7.70825C9 6.60368 8.10457 5.70825 7 5.70825C5.89543 5.70825 5 6.60368 5 7.70825C5 8.81282 5.89543 9.70825 7 9.70825Z" stroke="#C2C2C2" stroke-linecap="round" stroke-linejoin="round"/>
</svg>
