<svg width="24" height="24" viewBox="0 0 24 24" fill="none" xmlns="http://www.w3.org/2000/svg">
<mask id="mask0_28_5303" style="mask-type:alpha" maskUnits="userSpaceOnUse" x="0" y="0" width="24" height="24">
<rect width="24" height="24" fill="#D9D9D9"/>
</mask>
<g mask="url(#mask0_28_5303)">
<path d="M16.5 19C17.2 19 17.7917 18.7583 18.275 18.275C18.7583 17.7917 19 17.2 19 16.5C19 15.8 18.7583 15.2083 18.275 14.725C17.7917 14.2417 17.2 14 16.5 14C15.8 14 15.2083 14.2417 14.725 14.725C14.2417 15.2083 14 15.8 14 16.5C14 17.2 14.2417 17.7917 14.725 18.275C15.2083 18.7583 15.8 19 16.5 19ZM22.3 22.3C22.1167 22.4833 21.8833 22.575 21.6 22.575C21.3167 22.575 21.0833 22.4833 20.9 22.3L18.9 20.3C18.55 20.5333 18.1708 20.7083 17.7625 20.825C17.3542 20.9417 16.9333 21 16.5 21C15.25 21 14.1875 20.5625 13.3125 19.6875C12.4375 18.8125 12 17.75 12 16.5C12 15.25 12.4375 14.1875 13.3125 13.3125C14.1875 12.4375 15.25 12 16.5 12C17.75 12 18.8125 12.4375 19.6875 13.3125C20.5625 14.1875 21 15.25 21 16.5C21 16.9333 20.9417 17.3542 20.825 17.7625C20.7083 18.1708 20.5333 18.55 20.3 18.9L22.3 20.9C22.4833 21.0833 22.575 21.3167 22.575 21.6C22.575 21.8833 22.4833 22.1167 22.3 22.3ZM5 22C4.45 22 3.97917 21.8042 3.5875 21.4125C3.19583 21.0208 3 20.55 3 20V4C3 3.45 3.19583 2.97917 3.5875 2.5875C3.97917 2.19583 4.45 2 5 2H12.175C12.4417 2 12.6958 2.05 12.9375 2.15C13.1792 2.25 13.3917 2.39167 13.575 2.575L18.425 7.425C18.6083 7.60833 18.75 7.82083 18.85 8.0625C18.95 8.30417 19 8.55833 19 8.825V10.5C18.6 10.3333 18.1917 10.2083 17.775 10.125C17.3583 10.0417 16.9333 10 16.5 10C15.5667 10 14.6958 10.175 13.8875 10.525C13.0792 10.875 12.3833 11.3667 11.8 12H8C7.86667 12 7.7375 12.025 7.6125 12.075C7.4875 12.125 7.37917 12.1958 7.2875 12.2875C7.19583 12.3792 7.125 12.4875 7.075 12.6125C7.025 12.7375 7 12.8667 7 13C7 13.2833 7.09583 13.5208 7.2875 13.7125C7.47917 13.9042 7.71667 14 8 14H10.5C10.3667 14.3167 10.2625 14.6417 10.1875 14.975C10.1125 15.3083 10.0583 15.65 10.025 16H8C7.71667 16 7.47917 16.0958 7.2875 16.2875C7.09583 16.4792 7 16.7167 7 17C7 17.2833 7.09583 17.5208 7.2875 17.7125C7.47917 17.9042 7.71667 18 8 18H10.175C10.3583 18.8333 10.6917 19.5958 11.175 20.2875C11.6583 20.9792 12.275 21.55 13.025 22H5ZM12 4V8C12 8.28333 12.0958 8.52083 12.2875 8.7125C12.4792 8.90417 12.7167 9 13 9H17L12 4Z" fill="#344248"/>
</g>
</svg>
