<svg width="22" height="22" viewBox="0 0 22 22" fill="none" xmlns="http://www.w3.org/2000/svg">
<mask id="mask0_1858_223" style="mask-type:alpha" maskUnits="userSpaceOnUse" x="0" y="0" width="22" height="22">
<rect width="22" height="22" fill="#D9D9D9"/>
</mask>
<g mask="url(#mask0_1858_223)">
<path d="M10.2515 19.2043C8.38249 19.026 6.81779 18.243 5.55737 16.8553C4.29696 15.4676 3.66675 13.8265 3.66675 11.9321C3.66675 10.8117 3.91374 9.75115 4.40774 8.75045C4.90171 7.74976 5.59685 6.91584 6.49315 6.24871L7.5855 7.34108C6.82161 7.85033 6.23214 8.51237 5.81709 9.3272C5.40204 10.142 5.19451 11.0103 5.19451 11.9321C5.19451 13.3987 5.67322 14.6757 6.63063 15.763C7.58804 16.8502 8.79499 17.4881 10.2515 17.6765V19.2043ZM11.7792 19.2043V17.6765C13.2408 17.4728 14.4465 16.8311 15.3963 15.7515C16.346 14.6719 16.8209 13.3987 16.8209 11.9321C16.8209 10.3126 16.2582 8.94016 15.1327 7.8147C14.0073 6.68923 12.6348 6.12649 11.0154 6.12649H10.6869L11.9397 7.37928L10.8549 8.46399L7.75357 5.36261L10.8549 2.26123L11.9397 3.34595L10.6869 4.59873H11.0154C13.0626 4.59873 14.7966 5.31169 16.2175 6.73761C17.6383 8.16353 18.3487 9.89502 18.3487 11.9321C18.3487 13.8214 17.721 15.4599 16.4657 16.8477C15.2104 18.2354 13.6482 19.0209 11.7792 19.2043Z" fill="#BDBDBD"/>
</g>
</svg>
