<svg width="20" height="20" viewBox="0 0 20 20" fill="none" xmlns="http://www.w3.org/2000/svg">
<mask id="mask0_25_2939" style="mask-type:alpha" maskUnits="userSpaceOnUse" x="0" y="0" width="20" height="20">
<rect width="19.7972" height="19.7972" fill="#D9D9D9"/>
</mask>
<g mask="url(#mask0_25_2939)">
<path d="M9.89862 13.1979C10.9297 13.1979 11.8062 12.837 12.5279 12.1153C13.2497 11.3935 13.6106 10.5171 13.6106 9.48595C13.6106 8.45485 13.2497 7.57841 12.5279 6.85663C11.8062 6.13486 10.9297 5.77397 9.89862 5.77397C8.86751 5.77397 7.99107 6.13486 7.2693 6.85663C6.54752 7.57841 6.18663 8.45485 6.18663 9.48595C6.18663 10.5171 6.54752 11.3935 7.2693 12.1153C7.99107 12.837 8.86751 13.1979 9.89862 13.1979ZM9.89862 11.7131C9.27995 11.7131 8.75409 11.4966 8.32102 11.0635C7.88796 10.6305 7.67143 10.1046 7.67143 9.48595C7.67143 8.86729 7.88796 8.34142 8.32102 7.90836C8.75409 7.4753 9.27995 7.25876 9.89862 7.25876C10.5173 7.25876 11.0431 7.4753 11.4762 7.90836C11.9093 8.34142 12.1258 8.86729 12.1258 9.48595C12.1258 10.1046 11.9093 10.6305 11.4762 11.0635C11.0431 11.4966 10.5173 11.7131 9.89862 11.7131ZM9.89862 15.6726C7.98763 15.6726 6.24163 15.1673 4.6606 14.1569C3.07957 13.1464 1.88349 11.7819 1.07235 10.0634C1.0311 9.99463 1.00361 9.90871 0.98986 9.8056C0.976112 9.70248 0.969238 9.59594 0.969238 9.48595C0.969238 9.37597 0.976112 9.26942 0.98986 9.16631C1.00361 9.0632 1.0311 8.97727 1.07235 8.90853C1.88349 7.19002 3.07957 5.82553 4.6606 4.81504C6.24163 3.80456 7.98763 3.29932 9.89862 3.29932C11.8096 3.29932 13.5556 3.80456 15.1366 4.81504C16.7177 5.82553 17.9137 7.19002 18.7249 8.90853C18.7661 8.97727 18.7936 9.0632 18.8074 9.16631C18.8211 9.26942 18.828 9.37597 18.828 9.48595C18.828 9.59594 18.8211 9.70248 18.8074 9.8056C18.7936 9.90871 18.7661 9.99463 18.7249 10.0634C17.9137 11.7819 16.7177 13.1464 15.1366 14.1569C13.5556 15.1673 11.8096 15.6726 9.89862 15.6726Z" fill="#C2C2C2"/>
</g>
</svg>
